PathFileType  4	(X/Y/Z) /workspace/opencap-mono/results/ba8f9f72-c3c0-4cdb-a5f6-69ba924cb011/d44734bd-61ee-49a5-b9fc-11194914285b/MarkerData/d44734bd-61ee-49a5-b9fc-11194914285b_5
DataRate	CameraRate	NumFrames	NumMarkers	Units	OrigDataRate	OrigDataStartFrame	OrigNumFrames
60.0	60.0	4	63	m	60.0	1125	1499
Frame#	Time	sternum			r_shoulder			l_shoulder			r_elbow			l_elbow			r_melbow			l_melbow			r_wrist_radius			l_wrist_radius			r_wrist_ulna			l_wrist_ulna			C7			r_ASIS			l_ASIS			r_PSIS			l_PSIS			r_knee			l_knee			r_mknee			l_mknee			r_ankle			l_ankle			r_mankle			l_mankle			r_5meta			l_5meta			r_toe			l_toe			r_pinky			l_pinky			r_index			l_index			L4			T6			r_big_toe			l_big_toe			l_calc			r_calc			Nose			Neck			RShoulder			RElbow			RWrist			LShoulder			LElbow			LWrist			MidHip			RHip			RKnee			RAnkle			LHip			LKnee			LAnkle			REye			LEye			REar			LEar			LBigToe			LSmallToe			LHeel			RBigToe			RSmallToe			RHeel			
		X1	Y1	Z1	X2	Y2	Z2	X3	Y3	Z3	X4	Y4	Z4	X5	Y5	Z5	X6	Y6	Z6	X7	Y7	Z7	X8	Y8	Z8	X9	Y9	Z9	X10	Y10	Z10	X11	Y11	Z11	X12	Y12	Z12	X13	Y13	Z13	X14	Y14	Z14	X15	Y15	Z15	X16	Y16	Z16	X17	Y17	Z17	X18	Y18	Z18	X19	Y19	Z19	X20	Y20	Z20	X21	Y21	Z21	X22	Y22	Z22	X23	Y23	Z23	X24	Y24	Z24	X25	Y25	Z25	X26	Y26	Z26	X27	Y27	Z27	X28	Y28	Z28	X29	Y29	Z29	X30	Y30	Z30	X31	Y31	Z31	X32	Y32	Z32	X33	Y33	Z33	X34	Y34	Z34	X35	Y35	Z35	X36	Y36	Z36	X37	Y37	Z37	X38	Y38	Z38	X39	Y39	Z39	X40	Y40	Z40	X41	Y41	Z41	X42	Y42	Z42	X43	Y43	Z43	X44	Y44	Z44	X45	Y45	Z45	X46	Y46	Z46	X47	Y47	Z47	X48	Y48	Z48	X49	Y49	Z49	X50	Y50	Z50	X51	Y51	Z51	X52	Y52	Z52	X53	Y53	Z53	X54	Y54	Z54	X55	Y55	Z55	X56	Y56	Z56	X57	Y57	Z57	X58	Y58	Z58	X59	Y59	Z59	X60	Y60	Z60	X61	Y61	Z61	X62	Y62	Z62	X63	Y63	Z63	

1125	18.7333333	7.4263104	1.5749256	19.4883842	7.2596756	1.5689056	19.4910402	7.5652216	1.6136956	19.4205777	7.2571727	1.2310956	19.5567929	7.6551060	1.2840356	19.3534888	7.2899941	1.2314856	19.5281944	7.6198645	1.2838656	19.3287139	7.4162810	1.1220256	19.7433654	7.5775034	1.0629956	19.4738383	7.3847548	1.0941056	19.7410996	7.6138720	1.0517356	19.4589758	7.3784581	1.6086956	19.3806248	7.3666165	1.1398556	19.5846675	7.5551714	1.1081456	19.4696257	7.3340508	1.1773656	19.3987893	7.4254475	1.1606756	19.3400520	7.3468953	0.6703256	19.5553347	7.4995333	0.6534756	19.3911274	7.4157797	0.6931756	19.4733447	7.4023888	0.6591856	19.4364706	7.4341723	0.2388856	19.4368594	7.4014215	0.2599856	19.2045750	7.4784265	0.2627156	19.4096530	7.3576859	0.2512156	19.2450321	7.5066057	0.1584656	19.4749388	7.4667550	0.1927356	19.2480604	7.5668174	0.1857456	19.4771859	7.4548930	0.1980856	19.3197103	7.4130383	1.0351156	19.8015240	7.6092593	0.9772056	19.4931923	7.4656604	1.0758056	19.8058261	7.5559865	0.9883456	19.5196027	7.4101916	1.2549656	19.3831086	7.3917638	1.4853356	19.3433121	7.6101425	0.1861956	19.4582188	7.4483354	0.1818656	19.3633033	7.3426404	0.2259156	19.1657781	7.4192032	0.2274456	19.3623634	7.4025623	1.7987756	19.5189628	7.4194382	1.5139256	19.4444871	7.2607401	1.4881356	19.4911945	7.2839508	1.2364156	19.5558958	7.4100036	1.0973256	19.7353185	7.5781364	1.5397056	19.3977797	7.6319014	1.2775956	19.3525435	7.5889418	1.0509556	19.4552950	7.4161657	1.0707756	19.4629102	7.3387158	1.0878356	19.5172937	7.3835709	0.6372256	19.5305857	7.4576821	0.2440256	19.4072178	7.4936247	1.0537056	19.4085309	7.4620264	0.6209056	19.4055915	7.3718409	0.2555556	19.2219408	7.3509216	1.8075756	19.4872139	7.4104773	1.8200556	19.4608645	7.3048415	1.7366456	19.4356373	7.4310834	1.7621156	19.3832402	7.4720176	0.1701356	19.3733755	7.5000762	0.1751156	19.2981782	7.3426404	0.2259156	19.1657781	7.6271113	0.1687656	19.4568962	7.5567981	0.1394856	19.4897044	7.4263891	0.2135256	19.3556846
1126	18.7500000	7.4337910	1.5765556	19.4938034	7.2661809	1.5690656	19.4977700	7.5708253	1.6144756	19.4244376	7.2605092	1.2308156	19.5624864	7.6602913	1.2831456	19.3579149	7.2938726	1.2315456	19.5345710	7.6235580	1.2838856	19.3345407	7.4162355	1.1177356	19.7489052	7.5798691	1.0637756	19.4819920	7.3852949	1.0890556	19.7451470	7.6146746	1.0512556	19.4642822	7.3842667	1.6082656	19.3846133	7.3761344	1.1405756	19.5947330	7.5631523	1.1072956	19.4755099	7.3422477	1.1797756	19.4096291	7.4325795	1.1622056	19.3495787	7.3533699	0.6691856	19.5661768	7.5030826	0.6534356	19.4057582	7.4208104	0.6928156	19.4821012	7.4095763	0.6582256	19.4580169	7.4358984	0.2405856	19.4371567	7.4004718	0.2670756	19.2107524	7.4800342	0.2635756	19.4080745	7.3588347	0.2565656	19.2525301	7.5068413	0.1611056	19.4748831	7.4654507	0.1946656	19.2479708	7.5699599	0.1909556	19.4805270	7.4550197	0.1963256	19.3189419	7.4116800	1.0296856	19.8068268	7.6136395	0.9783356	19.5002441	7.4633363	1.0723256	19.8136025	7.5617243	0.9896456	19.5313149	7.4185250	1.2567856	19.3940341	7.3974503	1.4835556	19.3511827	7.6158744	0.1963156	19.4705351	7.4483776	0.1805756	19.3627161	7.3396635	0.2366856	19.1727536	7.4193465	0.2272756	19.3628606	7.4072753	1.7996256	19.5260816	7.4268788	1.5138656	19.4513882	7.2684540	1.4884556	19.4990947	7.2876831	1.2359956	19.5621600	7.4104045	1.0927856	19.7406582	7.5853169	1.5392756	19.4036769	7.6370021	1.2766856	19.3587838	7.5899001	1.0510956	19.4620422	7.4235283	1.0716156	19.4715403	7.3471964	1.0890256	19.5273831	7.3888999	0.6381756	19.5389627	7.4592597	0.2460556	19.4101051	7.4998602	1.0542056	19.4156975	7.4669842	0.6212156	19.4231409	7.3718801	0.2621056	19.2299254	7.3552813	1.8068556	19.4943334	7.4146593	1.8205456	19.4678681	7.3104752	1.7343056	19.4427220	7.4363582	1.7620756	19.3902900	7.4717656	0.1703756	19.3731587	7.5000925	0.1750656	19.2981196	7.3396635	0.2366856	19.1727536	7.6339087	0.1817056	19.4767710	7.5628669	0.1439656	19.4991215	7.4264202	0.2129456	19.3566590
1127	18.7666667	7.4383626	1.5776556	19.4985281	7.2708493	1.5691156	19.5048900	7.5746047	1.6142456	19.4263654	7.2637400	1.2305256	19.5685720	7.6655532	1.2820156	19.3620346	7.2971077	1.2312956	19.5406475	7.6281067	1.2827456	19.3394092	7.4170395	1.1115256	19.7524578	7.5844515	1.0645356	19.4905505	7.3858612	1.0831656	19.7478606	7.6186435	1.0514356	19.4718374	7.3873439	1.6075756	19.3880232	7.3843429	1.1420656	19.6041990	7.5696907	1.1081656	19.4814828	7.3476431	1.1817856	19.4196148	7.4371982	1.1637056	19.3583196	7.3585692	0.6699256	19.5712825	7.5054477	0.6546856	19.4199471	7.4242839	0.6946056	19.4854422	7.4138050	0.6593056	19.4757340	7.4381975	0.2434256	19.4366510	7.4000820	0.2737956	19.2184267	7.4823316	0.2654056	19.4057033	7.3601488	0.2610956	19.2611644	7.5072836	0.1641456	19.4750232	7.4652490	0.1969556	19.2482850	7.5713330	0.1948756	19.4805163	7.4558018	0.1951956	19.3182584	7.4102092	1.0226456	19.8096496	7.6195105	0.9793656	19.5089731	7.4624234	1.0648556	19.8176896	7.5680272	0.9908056	19.5419335	7.4238996	1.2589456	19.4030944	7.4010831	1.4814956	19.3580626	7.6172740	0.2017156	19.4741117	7.4483151	0.1797556	19.3619036	7.3375981	0.2470256	19.1809926	7.4199724	0.2285056	19.3630090	7.4110532	1.7987256	19.5331947	7.4317837	1.5131856	19.4575041	7.2739678	1.4884856	19.5071938	7.2910873	1.2353656	19.5682051	7.4109686	1.0866556	19.7441100	7.5895996	1.5378756	19.4078145	7.6424014	1.2753256	19.3640049	7.5939652	1.0513756	19.4701719	7.4296300	1.0730456	19.4800349	7.3542536	1.0906256	19.5371177	7.3932163	0.6392056	19.5426967	7.4616252	0.2482156	19.4094096	7.5050022	1.0554756	19.4229612	7.4701768	0.6224256	19.4387970	7.3720024	0.2677856	19.2389860	7.3585850	1.8051156	19.5019426	7.4175799	1.8199656	19.4750448	7.3142852	1.7317556	19.4500265	7.4393342	1.7621156	19.3967091	7.4710551	0.1705256	19.3730260	7.5006635	0.1746056	19.2983858	7.3375981	0.2470256	19.1809926	7.6347838	0.1884156	19.4839097	7.5641397	0.1488056	19.5028045	7.4265418	0.2137756	19.3573446
1128	18.7833333	7.4426605	1.5790356	19.5012605	7.2755131	1.5689856	19.5110259	7.5790687	1.6132956	19.4268251	7.2676522	1.2301356	19.5745450	7.6718379	1.2802756	19.3662562	7.3006870	1.2306156	19.5462225	7.6342682	1.2805756	19.3437057	7.4189848	1.1043656	19.7547221	7.5907341	1.0641356	19.4978054	7.3869045	1.0770956	19.7500242	7.6251134	1.0509656	19.4792348	7.3903686	1.6071756	19.3896764	7.3912263	1.1448056	19.6123188	7.5764329	1.1115056	19.4882016	7.3525213	1.1829356	19.4277044	7.4420462	1.1647756	19.3661192	7.3639652	0.6716456	19.5732691	7.5104001	0.6568556	19.4354969	7.4293554	0.6972856	19.4870126	7.4201722	0.6615356	19.4936208	7.4398375	0.2468256	19.4359261	7.3993189	0.2813756	19.2283212	7.4844986	0.2669456	19.4034698	7.3616594	0.2665156	19.2724061	7.5064247	0.1680156	19.4776459	7.4648927	0.2004256	19.2490015	7.5715254	0.1977556	19.4813342	7.4572370	0.1952856	19.3177360	7.4092207	1.0150956	19.8112962	7.6271188	0.9792556	19.5171000	7.4630945	1.0554056	19.8194921	7.5751444	0.9904356	19.5502617	7.4283407	1.2611156	19.4099209	7.4045890	1.4798156	19.3629193	7.6174775	0.2038356	19.4756631	7.4487945	0.1797656	19.3609465	7.3343768	0.2585156	19.1929406	7.4204612	0.2297156	19.3630493	7.4154356	1.7973156	19.5377098	7.4366085	1.5118256	19.4624903	7.2796915	1.4880756	19.5141329	7.2950496	1.2345456	19.5738814	7.4120736	1.0797056	19.7464017	7.5935254	1.5355656	19.4108478	7.6489001	1.2732756	19.3686903	7.6005269	1.0505856	19.4774907	7.4362167	1.0751856	19.4882702	7.3609812	1.0925356	19.5455951	7.3982986	0.6405956	19.5441729	7.4635392	0.2500856	19.4079078	7.5114565	1.0578356	19.4309361	7.4756665	0.6246456	19.4553478	7.3719865	0.2743556	19.2506854	7.3623999	1.8035156	19.5074619	7.4208127	1.8192856	19.4797300	7.3179193	1.7300856	19.4551526	7.4416853	1.7626556	19.4002328	7.4706502	0.1705656	19.3726165	7.5011250	0.1742556	19.2984135	7.3343768	0.2585156	19.1929406	7.6344060	0.1911156	19.4872753	7.5630783	0.1535556	19.5071865	7.4263693	0.2144256	19.3582352
